<svg width="337" height="77" viewBox="0 0 337 77" fill="none" xmlns="http://www.w3.org/2000/svg">
<path d="M49.8865 16.7734L47.7666 16.3735L48.155 16.6444C45.4201 16.4319 42.693 16.2083 39.9827 15.942C36.0785 15.0883 31.8816 14.5149 27.6246 14.2913C28.8632 13.9192 30.0389 13.5016 31.1344 13.0507C36.5422 13.9795 41.7333 15.2062 47.4092 15.5347C47.7842 15.6228 48.1522 15.7175 48.5215 15.8158C49.0506 16.1397 49.5833 16.4654 50.1159 16.792C50.0406 16.7892 49.9632 16.7827 49.8865 16.7734ZM42.8344 24.5037C42.4918 24.564 41.8233 24.5111 42.1794 24.9843C39.3917 24.7524 36.5605 24.5928 33.6532 24.5148C32.5718 24.4842 31.5017 24.5519 30.4758 24.718C29.3459 23.8319 28.1483 22.9727 26.6041 22.2795C29.2002 22.7964 32.1722 22.9884 34.9042 23.3281C37.9339 23.7113 40.9136 24.0639 43.8856 24.3821C43.5366 24.422 43.1876 24.4629 42.8344 24.5037ZM20.7601 32.3778C20.5548 32.1765 20.3061 31.9324 19.992 31.6244C19.992 31.6244 20.3185 31.9408 20.7701 32.3778H20.7601ZM11.1567 47.2056L11.0212 47.0655L12.7549 43.6415L11.1567 47.2056ZM8.23515 25.9271C8.41597 26.0023 8.55394 26.1182 8.7812 26.3075C8.7812 26.3075 8.78015 26.3066 8.23515 25.9271ZM336.307 29.7092C317.277 29.5635 298.437 31.0361 280.023 33.4597C279.019 33.4922 278.011 33.5238 277 33.5562C277 33.5562 277 33.547 276.999 33.5423C276.673 32.8297 276 32.2043 275.089 31.6986C281.612 31.3015 288.097 30.8524 294.604 30.3327C300.029 30.3151 305.456 30.2975 310.893 30.2808C311.676 30.2798 312.326 29.9699 312.337 29.5459C312.354 29.159 311.7 28.8648 310.876 28.849L306.88 28.8481C307.97 28.3387 308.675 27.6298 308.735 26.8457C308.796 26.0885 308.234 25.4075 307.299 24.8888C313.159 24.0899 318.961 23.2167 324.616 22.0745C324.947 22.0114 325.122 21.8425 325 21.6783C324.878 21.5177 324.534 21.4333 324.206 21.4983C315.962 22.0689 307.826 22.8613 299.663 23.5006C293.197 22.6609 286.874 21.7423 279.898 21.4686C269.741 21.1011 260.219 22.1914 250.701 23.2789C247.275 23.072 243.86 22.9272 240.474 22.852C240.949 22.4855 241.23 22.0541 241.227 21.5892C241.226 21.4723 241.19 21.36 241.151 21.2449C244.132 21.2598 247.129 21.2765 250.177 21.2913C278.429 21.3795 304.915 17.8294 331.847 14.7933C333.571 14.6652 334.803 13.8626 334.577 13.0163C334.357 12.1655 332.751 11.5735 331.033 11.7015C318.097 11.8992 306.199 13.5453 293.122 15.1849C283.812 16.3466 275.624 17.2197 266.261 18.0567C255.299 19.0263 245.09 18.9623 234.334 19.0616C233.277 18.9382 232.217 18.8575 231.148 18.9206C230.066 18.9809 228.988 19.0412 227.916 19.1006C219.496 19.0718 137.755 18.6144 129.542 18.1142C139.37 17.4916 222.661 16.7762 232.32 15.5078C233.015 15.4521 233.474 15.1255 233.4 14.797C233.275 14.4676 232.65 14.2356 231.954 14.2913C218.486 15.1607 124.742 15.5792 111.237 16.0626C107.561 13.1546 99.7761 11.4946 92.8154 11.4491C90.2438 11.4195 87.8586 11.7665 85.4531 12.2712C86.5739 12.3826 87.6666 12.4912 88.7867 12.6034C85.4742 12.7352 82.6471 13.5184 79.8497 14.3284C79.6062 14.2913 79.3635 14.2532 79.1024 14.2338C72.6329 12.6591 65.0609 13.0442 58.0679 12.3909C58.2227 12.763 58.3796 13.1407 58.5336 13.5119C57.2418 13.2335 56.4939 12.5589 55.0776 12.3631C55.4695 12.6396 55.8445 12.9041 56.2357 13.1806L56.1513 13.1695C54.6421 12.571 52.8177 12.3149 50.9201 12.3047C46.6338 10.5899 41.3913 9.61934 35.89 9.1823C35.1857 8.73413 34.1275 8.42791 32.8807 8.3778C32.3551 8.24048 31.7402 8.14863 31.3616 7.95377C27.9682 6.14159 23.8125 4.91119 19.2219 4C20.105 4.33683 21.0207 4.68665 21.9052 5.0244C20.5782 4.74511 19.2699 4.45375 17.7864 4.4454C17.9475 4.6551 18.1238 4.88522 18.2869 5.09585C13.7333 3.54905 7.44361 4.14755 4.22932 6.42367C1.00321 8.70537 2.05585 11.8017 6.61492 13.3495L7.27179 13.5889C4.92137 13.9498 2.86062 14.7005 1.67739 16.0079C1.04529 16.7261 1.56665 17.6271 1.68239 18.4594C1.4699 19.6647 3.29896 20.7077 5.7552 20.7801C6.42199 20.7986 7.05882 20.7401 7.64505 20.6279C10.4723 21.0556 13.3655 21.3934 16.1148 21.9177C16.6576 22.0476 17.3249 21.9269 17.6173 21.6448C17.8677 21.3655 17.6379 21.0399 17.0762 20.9192C15.0984 20.369 13.185 19.7826 11.2811 19.1878C11.1209 19.2583 10.9616 19.3288 10.7994 19.3993C10.8695 19.2973 10.9648 19.2073 11.0618 19.1191C10.8887 19.0644 10.715 19.0096 10.5419 18.9558C10.6784 18.9029 10.8062 18.8445 10.9469 18.7944C11.0921 18.8222 11.2358 18.85 11.3801 18.8797C11.6272 18.7201 11.9116 18.58 12.234 18.4603C15.664 18.8584 19.0578 19.3094 22.2473 20.0869C22.4333 20.137 22.1105 20.6771 22.4507 20.8738C22.6208 20.9712 22.7975 21.0575 22.9817 21.1475C22.4078 21.0343 21.8021 20.9387 21.149 20.8682C18.6717 21.6458 17.7358 21.9399 17.0891 22.1422L17.0789 22.1357C17.0789 22.1357 17.0726 22.1366 16.8843 22.2072C16.5853 22.2999 16.3242 22.3816 15.9457 22.5004C15.9457 22.5004 15.9463 22.5199 15.948 22.5468C15.8721 22.5746 15.7927 22.6034 15.7094 22.634L14.6059 22.5319C14.1909 22.4855 13.7855 22.5876 13.5799 22.7546C13.4379 22.6219 13.2867 22.4865 13.0934 22.3528C10.9926 22.1005 10.9926 22.1004 8.83567 21.875C8.83567 21.875 8.837 22.0123 8.90356 22.2034C8.81779 22.2164 8.09492 22.3686 7.25533 22.2981C6.44592 22.3259 6.44592 22.3259 4.42942 22.1116C4.42942 22.1116 4.42942 22.1116 5.39461 22.646C5.39461 22.646 5.39461 22.646 4.54727 22.2767C4.54727 22.2767 4.54727 22.2768 4.75786 22.891C4.75786 22.891 4.75786 22.891 4.37771 22.2211C4.37771 22.2211 4.37771 22.2211 3.99981 22.7277C3.99981 22.7277 3.99348 22.7221 2.33568 21.2737C2.20235 21.3062 1.8877 21.3832 1.09616 21.5762C1.09616 21.5762 0.874033 21.7154 0.710519 21.8852C0.688848 22.0643 0.68934 22.0643 0.00312669 22.6962C0.00312669 22.6962 -0.0169948 22.9031 0.0448509 23.1211C0.246852 23.3243 0.246851 23.3243 0.287307 23.8885C0.287307 23.8885 0.515692 24.1056 0.851516 24.2912C1.17446 24.3979 1.25777 24.4248 2.45521 24.7672C2.34855 24.8628 2.24773 24.9639 2.15703 25.0688C1.90283 26.1182 1.90226 26.1182 3.35806 28.5456C3.35806 28.5456 4.1845 29.2072 5.53758 29.6786C7.11377 29.9022 7.11376 29.9022 8.93543 30.1332C8.93543 30.1332 9.33036 30.2205 10.0147 30.3355C10.5185 30.7289 10.6298 30.8319 11.0014 31.1855C11.0014 31.1855 11.0041 31.1855 11.0096 31.191C10.6606 31.2179 10.317 31.2894 10.0312 31.4063C9.20118 31.7524 9.07475 32.3463 9.75857 32.7453C8.81779 34.3644 9.33226 35.8231 10.4544 37.2149C10.0938 37.7503 9.92123 38.3154 9.95698 38.8935C8.58279 40.2779 7.71428 41.7477 7.33089 43.3084L7.14261 44.6706C7.50869 45.8174 8.61987 46.8854 10.2846 47.702L10.787 48.0268L10.2835 49.1514C12.3775 52.1281 16.598 54.4979 19.1825 57.3335L21.138 58.8256C22.557 60.0309 24.8281 60.9078 27.4992 61.3198L30.3231 61.7318C30.9191 61.7494 31.5108 61.7605 32.1103 61.7652C29.0764 63.1793 27.3852 65.2429 27.9014 67.4086C28.7921 70.9727 35.4755 73.4622 42.8203 72.9277C62.4083 72.6494 81.3244 72.2569 101.343 70.5895C116.163 69.3758 136.333 67.7696 150.853 67.623C164.735 65.9249 251.581 63.7759 265.092 61.2177C276.446 59.0863 285.094 54.9665 295.092 51.7866C295.382 51.7031 295.407 51.5017 295.249 51.3598C295.014 51.2159 294.606 51.2085 294.347 51.3069C278.454 54.1722 262.406 56.6784 245.317 57.4133C243.359 57.4922 241.434 57.5266 239.528 57.5228C239.317 57.4718 239.085 57.4356 238.835 57.4282C237.101 57.2732 235.359 57.1387 233.62 57.0125L235.436 56.954C236.637 56.9642 237.664 56.5012 237.746 55.8907C237.748 55.6364 237.577 55.4054 237.297 55.2152C241.736 54.5294 246.076 53.6452 250.4 52.7201C251.692 52.6403 252.88 52.4111 253.901 52.077C258.912 52.463 263.939 52.7182 268.979 53.0662L270.227 53.2248C271.882 53.3315 273.47 52.9465 274.256 52.2301C274.509 52.0195 274.659 51.7922 274.732 51.5648C286.181 50.1693 297.807 49.0827 308.583 46.5876C309.129 46.4605 309.415 46.2016 309.322 45.9204C309.527 45.9863 309.796 46.0012 310.036 45.926C311.317 45.4361 312.755 45.1252 314.274 44.8487C314.603 44.7467 314.782 44.5778 314.624 44.4367C314.463 44.2567 314.086 44.1908 313.79 44.2716C312.239 44.5666 310.721 44.9174 309.332 45.3943C309.184 45.45 309.086 45.5381 309.061 45.6309C308.747 45.4593 308.254 45.386 307.767 45.4704C296.607 46.4178 285.809 48.3293 274.526 48.86C280.034 47.7085 285.672 46.8901 291.599 45.9928C298.752 44.922 305.322 43.4392 312.534 42.7795C312.909 42.7712 313.158 42.5995 313.115 42.4343C313.064 42.2701 312.753 42.1291 312.383 42.1782C297.607 43.2268 284.69 47.4682 269.392 47.6621C268.791 47.6677 268.189 47.6584 267.596 47.6417C272.298 46.1645 276.912 44.6529 281.508 43.1637C295.559 42.3824 309.541 41.2828 323.334 39.7555C324.009 39.737 324.549 39.4465 324.526 39.1171C324.505 38.7868 323.926 38.5279 323.254 38.5446C315.404 38.1734 307.509 37.8357 299.602 37.5722L301.252 37.1036L302.897 36.9143C307.977 36.7992 313.055 36.6313 318.15 36.378C320.054 36.3863 321.615 35.6301 321.697 34.6744C321.71 33.7446 320.283 33.0125 318.45 32.967L319.335 32.787C319.634 32.7415 319.844 32.555 319.759 32.4084C319.639 32.2451 319.256 32.144 318.965 32.1895C317.899 32.4289 316.851 32.6655 315.799 32.9021C306.118 32.6905 296.433 32.9327 286.748 33.2435C297.158 32.0104 307.708 31.114 318.338 30.6668C318.124 30.7837 318.103 30.9823 318.371 31.1038C318.599 31.2059 319.049 31.1966 319.266 31.0788C319.516 30.9461 319.468 30.7457 319.237 30.6408L319.213 30.6324C324.918 30.4042 330.645 30.2993 336.39 30.3466C336.726 30.3569 337.011 30.2037 337 30.0219C336.99 29.8372 336.678 29.6981 336.307 29.7092Z" fill="#00D959" style="fill:#00D959;fill:color(display-p3 0.0000 0.8510 0.3490);fill-opacity:1;"/>
<path d="M27.8182 15.4545L39.9318 52.0909H40.4091L52.5 15.4545H61.7727L45.3636 62H34.9545L18.5682 15.4545H27.8182ZM73.9602 62.7045C71.7481 62.7045 69.7557 62.3106 67.983 61.5227C66.2254 60.7197 64.8314 59.5379 63.8011 57.9773C62.786 56.4167 62.2784 54.4924 62.2784 52.2045C62.2784 50.2348 62.642 48.6061 63.3693 47.3182C64.0966 46.0303 65.089 45 66.3466 44.2273C67.6042 43.4545 69.0208 42.8712 70.5966 42.4773C72.1875 42.0682 73.8314 41.7727 75.5284 41.5909C77.5739 41.3788 79.233 41.1894 80.5057 41.0227C81.7784 40.8409 82.7027 40.5682 83.2784 40.2045C83.8693 39.8258 84.1648 39.2424 84.1648 38.4545V38.3182C84.1648 36.6061 83.6572 35.2803 82.642 34.3409C81.6269 33.4015 80.1648 32.9318 78.2557 32.9318C76.2405 32.9318 74.642 33.3712 73.4602 34.25C72.2936 35.1288 71.5057 36.1667 71.0966 37.3636L63.4148 36.2727C64.0208 34.1515 65.0208 32.3788 66.4148 30.9545C67.8087 29.5151 69.5133 28.4394 71.5284 27.7273C73.5436 27 75.7708 26.6364 78.2102 26.6364C79.892 26.6364 81.5663 26.8333 83.233 27.2273C84.8996 27.6212 86.4223 28.2727 87.8011 29.1818C89.1799 30.0758 90.286 31.2955 91.1193 32.8409C91.9678 34.3864 92.392 36.3182 92.392 38.6364V62H84.483V57.2045H84.2102C83.7102 58.1742 83.0057 59.0833 82.0966 59.9318C81.2027 60.7652 80.0739 61.4394 78.7102 61.9545C77.3617 62.4545 75.7784 62.7045 73.9602 62.7045ZM76.0966 56.6591C77.7481 56.6591 79.1799 56.3333 80.392 55.6818C81.6042 55.0152 82.536 54.1364 83.1875 53.0455C83.8542 51.9545 84.1875 50.7652 84.1875 49.4773V45.3636C83.9299 45.5758 83.4905 45.7727 82.8693 45.9545C82.2633 46.1364 81.5814 46.2955 80.8239 46.4318C80.0663 46.5682 79.3163 46.6894 78.5739 46.7955C77.8314 46.9015 77.1875 46.9924 76.642 47.0682C75.4148 47.2348 74.3163 47.5076 73.3466 47.8864C72.3769 48.2652 71.6117 48.7955 71.0511 49.4773C70.4905 50.1439 70.2102 51.0076 70.2102 52.0682C70.2102 53.5833 70.7633 54.7273 71.8693 55.5C72.9754 56.2727 74.3845 56.6591 76.0966 56.6591ZM108.892 15.4545V62H100.665V15.4545H108.892ZM132.58 62.6818C129.17 62.6818 126.216 61.9318 123.716 60.4318C121.216 58.9318 119.277 56.8333 117.898 54.1364C116.534 51.4394 115.852 48.2879 115.852 44.6818C115.852 41.0758 116.534 37.9167 117.898 35.2045C119.277 32.4924 121.216 30.3864 123.716 28.8864C126.216 27.3864 129.17 26.6364 132.58 26.6364C135.989 26.6364 138.943 27.3864 141.443 28.8864C143.943 30.3864 145.875 32.4924 147.239 35.2045C148.617 37.9167 149.307 41.0758 149.307 44.6818C149.307 48.2879 148.617 51.4394 147.239 54.1364C145.875 56.8333 143.943 58.9318 141.443 60.4318C138.943 61.9318 135.989 62.6818 132.58 62.6818ZM132.625 56.0909C134.473 56.0909 136.019 55.5833 137.261 54.5682C138.504 53.5379 139.428 52.1591 140.034 50.4318C140.655 48.7045 140.966 46.7803 140.966 44.6591C140.966 42.5227 140.655 40.5909 140.034 38.8636C139.428 37.1212 138.504 35.7348 137.261 34.7045C136.019 33.6742 134.473 33.1591 132.625 33.1591C130.731 33.1591 129.155 33.6742 127.898 34.7045C126.655 35.7348 125.723 37.1212 125.102 38.8636C124.496 40.5909 124.193 42.5227 124.193 44.6591C124.193 46.7803 124.496 48.7045 125.102 50.4318C125.723 52.1591 126.655 53.5379 127.898 54.5682C129.155 55.5833 130.731 56.0909 132.625 56.0909ZM156.29 62V27.0909H164.267V32.9091H164.631C165.267 30.8939 166.358 29.3409 167.903 28.25C169.464 27.1439 171.244 26.5909 173.244 26.5909C173.699 26.5909 174.206 26.6136 174.767 26.6591C175.343 26.6894 175.82 26.7424 176.199 26.8182V34.3864C175.85 34.2652 175.297 34.1591 174.54 34.0682C173.797 33.9621 173.078 33.9091 172.381 33.9091C170.881 33.9091 169.532 34.2348 168.335 34.8864C167.153 35.5227 166.222 36.4091 165.54 37.5455C164.858 38.6818 164.517 39.9924 164.517 41.4773V62H156.29ZM181.665 62V27.0909H189.892V62H181.665ZM185.801 22.1364C184.498 22.1364 183.377 21.7045 182.438 20.8409C181.498 19.9621 181.028 18.9091 181.028 17.6818C181.028 16.4394 181.498 15.3864 182.438 14.5227C183.377 13.6439 184.498 13.2045 185.801 13.2045C187.119 13.2045 188.241 13.6439 189.165 14.5227C190.104 15.3864 190.574 16.4394 190.574 17.6818C190.574 18.9091 190.104 19.9621 189.165 20.8409C188.241 21.7045 187.119 22.1364 185.801 22.1364ZM197.898 62V56.7727L215.898 34.2045V33.9091H198.489V27.0909H225.966V32.7045L208.83 54.8864V55.1818H226.557V62H197.898ZM248.744 62.6818C245.244 62.6818 242.222 61.9545 239.676 60.5C237.146 59.0303 235.199 56.9545 233.835 54.2727C232.472 51.5758 231.79 48.4015 231.79 44.75C231.79 41.1591 232.472 38.0076 233.835 35.2955C235.214 32.5682 237.138 30.447 239.608 28.9318C242.078 27.4015 244.979 26.6364 248.312 26.6364C250.464 26.6364 252.494 26.9848 254.403 27.6818C256.328 28.3636 258.025 29.4242 259.494 30.8636C260.979 32.303 262.146 34.1364 262.994 36.3636C263.843 38.5758 264.267 41.2121 264.267 44.2727V46.7955H235.653V41.25H256.381C256.366 39.6742 256.025 38.2727 255.358 37.0455C254.691 35.803 253.759 34.8258 252.562 34.1136C251.381 33.4015 250.002 33.0455 248.426 33.0455C246.744 33.0455 245.267 33.4545 243.994 34.2727C242.722 35.0758 241.729 36.1364 241.017 37.4545C240.32 38.7576 239.964 40.1894 239.949 41.75V46.5909C239.949 48.6212 240.32 50.3636 241.062 51.8182C241.805 53.2576 242.843 54.3636 244.176 55.1364C245.509 55.8939 247.07 56.2727 248.858 56.2727C250.055 56.2727 251.138 56.1061 252.108 55.7727C253.078 55.4242 253.919 54.9167 254.631 54.25C255.343 53.5833 255.881 52.7576 256.244 51.7727L263.926 52.6364C263.441 54.6667 262.517 56.4394 261.153 57.9545C259.805 59.4545 258.078 60.6212 255.972 61.4545C253.866 62.2727 251.456 62.6818 248.744 62.6818Z" fill="#1C1C1C" style="fill:#1C1C1C;fill:color(display-p3 0.1110 0.1110 0.1110);fill-opacity:1;"/>
</svg>
