<svg width="92" height="77" viewBox="0 0 92 77" fill="none" xmlns="http://www.w3.org/2000/svg">
<path d="M13.6189 25.1454L13.0401 24.8903L13.1462 25.0631C12.3996 24.9276 11.6551 24.785 10.9152 24.6152C9.84933 24.0708 8.70358 23.7052 7.54143 23.5626C7.87956 23.3253 8.20053 23.059 8.49959 22.7715C9.97591 23.3637 11.3931 24.146 12.9426 24.3554C13.0449 24.4117 13.1454 24.472 13.2462 24.5347C13.3907 24.7412 13.5361 24.9489 13.6815 25.1572C13.6609 25.1554 13.6398 25.1513 13.6189 25.1454ZM11.6937 30.0748C11.6001 30.1133 11.4176 30.0795 11.5148 30.3813C10.7538 30.2334 9.9809 30.1316 9.18723 30.0819C8.89201 30.0624 8.59986 30.1056 8.31981 30.2115C8.01133 29.6464 7.68441 29.0985 7.26284 28.6565C7.97157 28.9861 8.78291 29.1086 9.52875 29.3251C10.3558 29.5695 11.1693 29.7943 11.9806 29.9973C11.8854 30.0227 11.7901 30.0488 11.6937 30.0748ZM5.66745 35.096C5.61141 34.9676 5.54351 34.812 5.45774 34.6155C5.45774 34.6155 5.54689 34.8173 5.67016 35.096H5.66745ZM3.04574 44.5514L3.00874 44.462L3.48204 42.2787L3.04574 44.5514ZM2.24817 30.9825C2.29753 31.0304 2.3352 31.1044 2.39724 31.2251C2.39724 31.2251 2.39695 31.2245 2.24817 30.9825ZM91.8107 33.3943C86.6156 33.3014 81.4725 34.2404 76.4454 35.7859C76.1713 35.8066 75.8962 35.8267 75.6202 35.8475C75.6202 35.8475 75.62 35.8415 75.6198 35.8386C75.5309 35.3842 75.3471 34.9853 75.0984 34.6629C76.8793 34.4096 78.6497 34.1232 80.426 33.7919C81.9072 33.7806 83.3885 33.7694 84.8728 33.7588C85.0866 33.7582 85.2641 33.5605 85.2672 33.2901C85.2716 33.0434 85.0932 32.8558 84.8682 32.8458L83.7774 32.8452C84.0748 32.5203 84.2674 32.0683 84.2837 31.5683C84.3004 31.0854 84.147 30.6511 83.8917 30.3204C85.4915 29.8109 87.0754 29.2541 88.6191 28.5257C88.7096 28.4855 88.7572 28.3778 88.724 28.2731C88.6908 28.1707 88.5969 28.1169 88.5073 28.1583C86.2568 28.5222 84.0356 29.0275 81.8071 29.4352C80.0419 28.8997 78.3157 28.3139 76.4114 28.1394C73.6386 27.9051 71.039 28.6003 68.4407 29.2938C67.5053 29.1618 66.5731 29.0695 65.6487 29.0216C65.7783 28.7879 65.855 28.5127 65.8542 28.2163C65.854 28.1417 65.844 28.0701 65.8335 27.9968C66.6473 28.0062 67.4655 28.0169 68.2974 28.0264C76.0102 28.0826 83.2408 25.8187 90.5933 23.8827C91.0639 23.801 91.4002 23.2892 91.3386 22.7496C91.2785 22.207 90.8399 21.8295 90.3711 21.9111C86.8395 22.0372 83.5915 23.0868 80.0215 24.1324C77.4797 24.8732 75.2445 25.43 72.6885 25.9637C69.696 26.582 66.9087 26.5412 63.9726 26.6045C63.6839 26.5258 63.3946 26.4743 63.1027 26.5146C62.8075 26.553 62.513 26.5915 62.2203 26.6293C59.9219 26.611 37.6068 26.3193 35.3646 26.0004C38.0476 25.6033 60.7858 25.1471 63.4227 24.3383C63.6125 24.3028 63.7377 24.0945 63.7175 23.885C63.6833 23.675 63.5128 23.5271 63.3228 23.5626C59.646 24.117 34.0543 24.3838 30.3673 24.6921C29.3637 22.8377 27.2386 21.7792 25.3383 21.7502C24.6363 21.7312 23.9851 21.9525 23.3284 22.2744C23.6344 22.3454 23.9327 22.4147 24.2385 22.4863C23.3342 22.5703 22.5624 23.0697 21.7987 23.5862C21.7323 23.5626 21.666 23.5383 21.5947 23.5259C19.8286 22.5218 17.7614 22.7673 15.8524 22.3508C15.8946 22.588 15.9374 22.8288 15.9795 23.0655C15.6269 22.888 15.4227 22.4579 15.036 22.333C15.143 22.5093 15.2454 22.678 15.3522 22.8543L15.3291 22.8472C14.9171 22.4655 14.4191 22.3022 13.901 22.2957C12.7309 21.2023 11.2997 20.5833 9.79785 20.3047C9.60558 20.0189 9.31669 19.8236 8.97633 19.7916C8.83285 19.7041 8.66497 19.6455 8.56163 19.5212C7.63524 18.3657 6.50075 17.5811 5.24751 17C5.48859 17.2148 5.73858 17.4379 5.98004 17.6532C5.61778 17.4751 5.26063 17.2893 4.85563 17.284C4.8996 17.4177 4.94776 17.5645 4.99226 17.6988C3.74915 16.7124 2.03208 17.0941 1.15459 18.5455C0.273875 20.0005 0.561242 21.975 1.80585 22.962L1.98518 23.1146C1.34352 23.3448 0.780942 23.8235 0.457924 24.6572C0.28536 25.1152 0.42769 25.6897 0.459287 26.2205C0.401279 26.9891 0.900606 27.6542 1.57115 27.7003C1.75318 27.7122 1.92704 27.6749 2.08708 27.6033C2.8589 27.8761 3.64875 28.0914 4.3993 28.4258C4.54748 28.5086 4.72965 28.4317 4.80948 28.2518C4.87784 28.0737 4.81511 27.866 4.66175 27.7891C4.12182 27.4382 3.59946 27.0642 3.07972 26.685C3.03598 26.7299 2.99247 26.7749 2.9482 26.8199C2.96733 26.7548 2.99336 26.6974 3.01985 26.6412C2.97257 26.6063 2.92517 26.5714 2.8779 26.537C2.91518 26.5033 2.95006 26.466 2.98848 26.4341C3.0281 26.4518 3.06735 26.4696 3.10674 26.4885C3.17418 26.3868 3.25184 26.2974 3.33985 26.2211C4.27623 26.4749 5.20272 26.7625 6.07345 27.2583C6.12424 27.2903 6.03609 27.6347 6.12896 27.7601C6.17541 27.8222 6.22366 27.8772 6.27392 27.9346C6.11726 27.8625 5.9519 27.8015 5.77362 27.7565C5.09731 28.2524 4.84182 28.44 4.66527 28.5689L4.6625 28.5648C4.6625 28.5648 4.66077 28.5654 4.60937 28.6104C4.52774 28.6695 4.45646 28.7216 4.35314 28.7973C4.35314 28.7973 4.35329 28.8098 4.35375 28.8269C4.33303 28.8447 4.31136 28.863 4.28862 28.8825L3.98736 28.8175C3.87408 28.7879 3.7634 28.853 3.70727 28.9595C3.66849 28.8749 3.62722 28.7885 3.57447 28.7033C3.00094 28.5423 3.00095 28.5423 2.41211 28.3985C2.41211 28.3985 2.41247 28.4861 2.43065 28.608C2.40723 28.6163 2.20989 28.7133 1.98068 28.6683C1.75972 28.6861 1.75972 28.6861 1.20922 28.5494C1.20922 28.5494 1.20922 28.5494 1.47271 28.8902C1.47271 28.8902 1.47271 28.8902 1.24139 28.6547C1.24139 28.6547 1.24139 28.6547 1.29888 29.0464C1.29888 29.0464 1.29888 29.0465 1.1951 28.6192C1.1951 28.6192 1.1951 28.6192 1.09194 28.9423C1.09194 28.9423 1.09021 28.9387 0.637633 28.0151C0.601234 28.0358 0.515336 28.0849 0.299248 28.208C0.299248 28.208 0.238609 28.2968 0.19397 28.405C0.188053 28.5192 0.188188 28.5192 0.000853577 28.9222C0.000853577 28.9222 -0.00463953 29.0541 0.0122442 29.1932C0.0673899 29.3228 0.0673896 29.3228 0.0784341 29.6825C0.0784341 29.6825 0.140782 29.821 0.232461 29.9393C0.320625 30.0074 0.343368 30.0245 0.670266 30.2429C0.641147 30.3038 0.613623 30.3683 0.588864 30.4352C0.519466 31.1044 0.519311 31.1044 0.916741 32.6523C0.916741 32.6523 1.14236 33.0742 1.51174 33.3747C1.94204 33.5173 1.94204 33.5173 2.43935 33.6647C2.43935 33.6647 2.54716 33.7203 2.73398 33.7937C2.87152 34.0445 2.90191 34.1102 3.00335 34.3357C3.00335 34.3357 3.00409 34.3357 3.00559 34.3392C2.9103 34.3564 2.81651 34.4019 2.73849 34.4765C2.51189 34.6972 2.47738 35.0759 2.66406 35.3303C2.40723 36.3628 2.54768 37.293 2.85402 38.1805C2.75558 38.5219 2.70847 38.8823 2.71822 39.2509C2.34308 40.1337 2.10598 41.071 2.00131 42.0662L1.94991 42.9349C2.04985 43.6662 2.3532 44.3472 2.80766 44.8679L2.94482 45.075L2.80737 45.7922C3.37903 47.6904 4.5312 49.2016 5.23678 51.0098L5.77062 51.9613C6.158 52.7299 6.77799 53.289 7.5072 53.5517L8.27813 53.8145C8.44082 53.8257 8.60235 53.8328 8.76601 53.8358C7.93776 54.7375 7.47606 56.0535 7.61699 57.4345C7.86016 59.7072 9.68472 61.2947 11.6898 60.9539C17.0373 60.7764 22.2013 60.5261 27.6663 59.4628C31.7123 58.6889 37.2186 57.6647 41.1825 57.5712C44.9722 56.4884 68.6808 55.118 72.3693 53.4867C75.4689 52.1275 77.8297 49.5004 80.5591 47.4726C80.6385 47.4194 80.6452 47.291 80.6022 47.2004C80.538 47.1087 80.4266 47.104 80.3557 47.1667C76.0171 48.9939 71.6361 50.5921 66.9708 51.0607C66.4362 51.111 65.9107 51.1329 65.3903 51.1305C65.3327 51.098 65.2695 51.0749 65.2011 51.0702C64.7279 50.9713 64.2523 50.8855 63.7776 50.8051L64.2734 50.7678C64.6011 50.7743 64.8815 50.479 64.904 50.0897C64.9044 49.9276 64.8579 49.7802 64.7813 49.6589C65.9931 49.2217 67.178 48.6578 68.3583 48.0679C68.7112 48.017 69.0354 47.8708 69.3143 47.6578C70.6821 47.904 72.0545 48.0667 73.4303 48.2886L73.7711 48.3897C74.2229 48.4578 74.6566 48.2122 74.8709 47.7554C74.9401 47.6211 74.9812 47.4762 75.001 47.3312C78.1267 46.4413 81.3004 45.7484 84.2423 44.1573C84.3913 44.0762 84.4695 43.9112 84.4439 43.7319C84.4998 43.7739 84.5734 43.7834 84.6389 43.7354C84.9885 43.423 85.3813 43.2248 85.7958 43.0485C85.8857 42.9834 85.9345 42.8757 85.8914 42.7857C85.8474 42.671 85.7445 42.6289 85.6638 42.6804C85.2403 42.8686 84.826 43.0923 84.4468 43.3964C84.4063 43.4319 84.3796 43.4881 84.3729 43.5473C84.287 43.4378 84.1524 43.3911 84.0194 43.4449C80.9727 44.049 78.0251 45.2679 74.9447 45.6064C76.4485 44.8721 77.9876 44.3502 79.6057 43.778C81.5585 43.0952 83.352 42.1497 85.3208 41.729C85.4233 41.7236 85.4911 41.6142 85.4794 41.5089C85.4654 41.4041 85.3805 41.3142 85.2797 41.3455C81.2458 42.0142 77.7195 44.7188 73.5433 44.8425C73.3791 44.8461 73.2148 44.8401 73.0529 44.8295C74.3366 43.8875 75.596 42.9236 76.8509 41.9739C80.6867 41.4757 84.5037 40.7746 88.2692 39.8006C88.4536 39.7888 88.6009 39.6036 88.5947 39.3935C88.589 39.1829 88.4309 39.0178 88.2473 39.0284C86.1043 38.7918 83.9489 38.5764 81.7904 38.4083L82.2408 38.1095L82.6901 37.9888C84.0767 37.9155 85.4631 37.8084 86.8539 37.6468C87.3737 37.6521 87.7999 37.1699 87.8224 36.5605C87.8259 35.9676 87.4363 35.5007 86.9358 35.4717L87.1774 35.3569C87.259 35.3279 87.3165 35.209 87.2932 35.1155C87.2604 35.0114 87.1559 34.9469 87.0764 34.9759C86.7856 35.1285 86.4994 35.2794 86.2122 35.4303C83.5694 35.2954 80.9254 35.4498 78.2813 35.648C81.1233 34.8617 84.0033 34.2901 86.9052 34.0049C86.847 34.0794 86.8413 34.2061 86.9143 34.2836C86.9765 34.3487 87.0994 34.3428 87.1586 34.2676C87.227 34.183 87.2139 34.0552 87.1507 33.9883L87.1442 33.983C88.7017 33.8374 90.2651 33.7706 91.8336 33.8008C91.9252 33.8073 92.003 33.7096 91.9999 33.5937C91.9972 33.4759 91.9121 33.3872 91.8107 33.3943Z" fill="#00D959" style="fill:#00D959;fill:color(display-p3 0.0000 0.8510 0.3490);fill-opacity:1;"/>
<path d="M32.8182 15.4545L44.9318 52.0909H45.4091L57.5 15.4545H66.7727L50.3636 62H39.9545L23.5682 15.4545H32.8182Z" fill="#1C1C1C" style="fill:#1C1C1C;fill:color(display-p3 0.1110 0.1110 0.1110);fill-opacity:1;"/>
</svg>
